<?xml version="1.0" standalone="no"?>
<!DOCTYPE svg PUBLIC "-//W3C//DTD SVG 20010904//EN"
 "http://www.w3.org/TR/2001/REC-SVG-20010904/DTD/svg10.dtd">
<svg version="1.0" xmlns="http://www.w3.org/2000/svg"
 width="640.000000pt" height="692.000000pt" viewBox="0 0 640.000000 692.000000"
 preserveAspectRatio="xMidYMid meet">

<g transform="translate(0.000000,692.000000) scale(0.100000,-0.100000)"
fill="#000000" stroke="none">
<path d="M0 5653 l0 -1268 70 3 c38 2 70 0 70 -6 0 -5 -32 -39 -70 -76 l-70
-68 0 -2119 0 -2119 3200 0 3200 0 0 2119 0 2119 -70 68 c-38 37 -70 71 -70
76 0 6 32 8 70 6 l70 -3 0 1268 0 1267 -1516 0 -1517 0 27 -21 26 -20 0 -254
c0 -253 0 -254 -45 -528 -25 -151 -45 -280 -45 -285 0 -6 50 -13 118 -16 64
-4 162 -9 217 -12 l100 -6 38 95 c45 116 47 162 11 307 -37 151 -32 197 36
333 60 120 72 188 51 287 -6 29 -9 56 -6 59 4 3 34 -23 68 -58 l61 -63 37 41
c21 23 43 41 48 41 10 0 31 -61 31 -92 0 -22 1 -22 78 2 103 32 111 28 59 -30
-72 -79 -88 -125 -102 -280 -14 -165 -23 -183 -140 -309 -48 -51 -95 -112
-106 -135 -10 -24 -25 -86 -33 -138 -16 -107 -31 -144 -76 -182 -39 -32 -52
-35 -170 -39 l-95 -3 105 -2 c90 -2 110 1 138 18 44 27 80 69 87 102 8 32 19
32 163 -14 l93 -29 46 33 c71 51 88 79 89 151 2 85 2 85 23 96 10 6 65 17 122
26 57 9 128 23 158 31 29 9 57 12 61 7 30 -36 101 -145 98 -153 -3 -9 -298
-222 -388 -280 -38 -24 -49 -37 -44 -49 4 -9 14 -37 23 -63 l16 -48 76 0 c116
0 162 18 286 115 135 107 164 117 334 113 117 -2 127 -1 182 25 32 14 76 41
98 58 39 30 39 30 39 7 0 -12 -14 -52 -30 -88 l-29 -65 32 -9 c53 -14 87 -28
87 -36 0 -9 -45 -48 -76 -66 -17 -10 -14 -16 39 -73 31 -34 57 -66 57 -71 0
-5 -19 -2 -42 6 -24 9 -77 18 -118 21 -71 5 -81 3 -192 -41 -147 -58 -182 -59
-327 -10 -145 49 -211 53 -321 16 l-85 -28 -3 -97 -3 -97 -34 0 c-49 0 -75 29
-75 83 0 23 -7 66 -15 96 -8 30 -12 58 -9 63 3 4 0 8 -5 8 -14 0 -13 -2 4 -75
8 -33 15 -76 15 -96 0 -49 27 -80 76 -88 33 -5 39 -10 42 -34 l3 -27 95 0 94
0 0 69 0 70 122 -50 c67 -27 126 -49 131 -49 6 0 34 22 63 50 50 48 55 50 109
50 72 0 147 -36 164 -79 10 -22 26 -35 66 -51 29 -12 64 -33 78 -48 26 -29 49
-67 42 -73 -6 -7 -4224 -4 -4231 3 -3 4 2 22 12 40 14 23 39 43 89 68 51 25
75 43 85 65 21 43 90 75 163 75 56 0 60 -2 113 -52 l55 -52 117 48 c64 27 123
51 130 53 9 4 12 -13 12 -66 l0 -71 95 0 c95 0 95 0 95 25 0 14 6 25 13 25 9
0 9 2 0 8 -8 5 -13 43 -15 106 l-3 99 -90 28 c-122 38 -164 37 -293 -8 -156
-53 -222 -52 -364 5 -123 48 -180 53 -277 23 -77 -24 -78 -14 -9 63 57 65 58
61 -12 107 -33 22 -20 47 28 55 65 10 66 13 32 98 -17 43 -30 82 -28 87 2 5
27 -8 57 -30 83 -62 133 -75 296 -75 163 -1 171 -4 303 -111 111 -89 155 -108
268 -113 l91 -4 21 59 c12 33 22 63 22 66 0 3 -21 21 -48 38 -37 26 -150 105
-391 275 -2 2 21 38 52 81 38 55 60 77 73 76 11 -1 51 -9 89 -17 39 -8 108
-21 154 -30 46 -8 88 -21 92 -28 5 -7 9 -43 9 -80 0 -64 2 -70 36 -108 20 -22
51 -49 70 -60 l33 -21 71 25 c39 14 75 26 81 26 11 0 12 -70 1 -86 -12 -18
-86 -64 -102 -64 -17 0 -94 -76 -129 -127 -26 -38 -54 -113 -42 -113 5 0 11
13 14 30 15 71 94 166 171 205 84 42 99 57 105 111 6 46 8 49 43 57 32 7 37
13 33 30 -2 12 -7 49 -10 82 -10 90 -42 149 -140 254 -112 120 -126 152 -136
306 -8 139 -23 181 -93 268 -54 65 -48 70 49 37 32 -11 64 -20 70 -20 7 0 15
19 18 46 8 72 22 77 69 24 l39 -44 58 62 c56 61 91 81 76 45 -14 -36 -22 -141
-15 -190 5 -28 32 -96 62 -154 50 -98 53 -108 52 -174 -1 -39 -11 -107 -25
-155 -35 -127 -31 -195 16 -303 l38 -89 96 6 c53 3 153 8 224 12 70 3 127 10
127 14 0 4 -20 130 -45 279 l-45 271 0 259 0 260 26 20 27 21 -1522 0 -1521 0
0 -1267z m1621 557 c22 -13 25 -52 5 -70 -8 -6 -25 -10 -38 -8 -30 4 -38 56
-12 75 21 16 20 16 45 3z m3201 -7 c21 -19 23 -44 6 -61 -39 -39 -100 17 -63
58 22 24 33 25 57 3z m-4018 -1309 c37 -13 53 -14 72 -5 14 6 49 11 79 11 l55
0 0 -40 c0 -25 -11 -63 -30 -100 -34 -68 -36 -89 -14 -131 8 -17 18 -67 21
-112 4 -68 2 -93 -17 -147 -27 -79 -77 -163 -124 -209 -19 -19 -33 -38 -30
-43 3 -4 25 -8 50 -8 l44 0 0 -331 0 -332 65 -72 65 -73 0 -378 -1 -379 -57
63 c-32 35 -61 60 -65 56 -11 -11 -9 -1953 3 -2013 18 -94 67 -138 164 -148
95 -10 172 26 234 107 l35 45 -5 -115 c-4 -100 -8 -123 -33 -175 -73 -154
-272 -270 -498 -291 -181 -16 -377 98 -455 263 l-27 58 -6 1295 c-4 712 -7
1355 -8 1427 l-1 133 -37 15 c-21 9 -49 26 -62 38 -26 25 -73 116 -65 129 3 4
43 8 90 8 l84 0 0 340 0 340 -160 0 -160 0 0 46 c0 42 5 51 72 125 39 43 75
79 80 79 4 0 8 -34 8 -75 l0 -75 80 0 80 0 0 85 0 85 -71 0 c-40 0 -69 4 -67
9 2 6 33 40 69 78 64 66 66 70 72 130 12 112 69 198 173 259 91 53 192 63 298
28z m4987 12 c152 -35 258 -151 275 -301 7 -57 11 -64 73 -128 36 -38 68 -72
69 -78 2 -5 -27 -9 -67 -9 l-71 0 0 -85 0 -85 80 0 80 0 0 75 c0 41 4 75 8 75
5 0 41 -36 80 -79 67 -74 72 -83 72 -125 l0 -46 -160 0 -160 0 0 -340 0 -340
84 0 c47 0 87 -4 90 -8 8 -13 -39 -104 -65 -129 -13 -12 -41 -29 -62 -38 l-37
-15 -1 -138 c-1 -75 -5 -715 -8 -1422 l-6 -1285 -23 -56 c-48 -120 -181 -229
-323 -265 -217 -56 -537 83 -631 274 -31 62 -33 75 -36 182 -2 68 0 111 5 105
5 -5 21 -27 36 -47 15 -21 49 -50 75 -65 40 -24 58 -28 122 -28 92 0 138 24
169 89 21 42 21 51 21 1062 l-1 1019 -59 -65 -59 -65 -1 378 0 379 60 67 60
67 2 340 3 339 47 3 47 3 -44 55 c-49 60 -73 103 -105 185 -24 65 -27 193 -5
254 21 57 18 91 -11 153 -15 31 -29 73 -32 94 l-5 38 67 0 c36 0 74 -5 84 -11
13 -8 33 -6 82 9 77 25 106 26 181 8z m-5522 -131 c16 -8 36 -31 46 -51 35
-73 -20 -154 -103 -154 -51 0 -102 54 -102 108 0 85 84 136 159 97z m5994 -25
c40 -45 38 -101 -7 -146 -40 -40 -83 -45 -132 -15 -98 60 -44 211 71 197 28
-3 48 -14 68 -36z m-4446 8 c11 -13 42 -54 69 -93 l49 -70 5 90 c5 84 7 90 28
93 22 3 22 3 22 -142 l0 -146 -27 0 c-24 1 -39 16 -100 102 l-73 101 0 -101 0
-102 -25 0 -25 0 0 145 0 145 28 0 c17 0 37 -9 49 -22z m360 10 c6 -7 33 -73
61 -145 l50 -133 -39 0 c-21 0 -38 3 -37 8 1 4 -2 22 -6 40 -7 32 -8 32 -65
32 l-58 0 -13 -40 c-10 -32 -18 -40 -37 -40 -12 0 -23 2 -23 4 0 3 22 62 50
133 27 70 50 134 50 141 0 7 12 12 29 12 16 0 33 -6 38 -12z m297 2 c19 -7 26
-17 26 -36 0 -14 -3 -24 -7 -22 -5 2 -20 10 -35 17 -82 41 -144 -103 -77 -175
25 -27 53 -30 89 -9 34 20 40 19 40 -8 0 -30 -35 -47 -94 -47 -98 0 -152 104
-110 209 27 67 99 98 168 71z m136 -135 l0 -145 -32 0 -33 0 3 145 3 145 30 0
29 0 0 -145z m260 130 c92 -48 105 -173 25 -244 -30 -26 -44 -31 -86 -31 -61
0 -104 21 -129 63 -26 42 -26 121 -1 163 35 57 128 81 191 49z m257 -81 l68
-97 3 97 c2 88 4 96 22 96 19 0 20 -8 20 -145 l0 -145 -24 0 c-20 0 -40 20
-98 101 l-73 100 -3 -100 c-3 -97 -4 -101 -25 -101 -22 0 -22 1 -20 142 2 79
3 144 3 146 0 1 13 2 29 2 26 0 38 -12 98 -96z m359 -49 c30 -77 54 -141 54
-142 0 -2 -15 -3 -33 -3 -31 0 -35 4 -46 40 l-12 41 -57 -3 c-57 -3 -57 -3
-66 -40 -8 -33 -13 -38 -39 -38 -19 0 -27 4 -24 13 11 26 95 243 101 260 4 14
14 17 37 15 31 -3 33 -7 85 -143z m144 25 l0 -120 60 0 c57 0 60 -1 60 -25 0
-25 -1 -25 -92 -25 l-93 0 3 145 3 145 30 0 29 0 0 -120z m471 95 c64 -34 89
-128 49 -192 -31 -52 -63 -66 -154 -71 l-81 -4 3 147 3 148 75 -6 c41 -4 88
-14 105 -22z m297 -2 c3 -22 0 -23 -57 -23 l-61 0 0 -35 0 -35 50 0 c46 0 50
-2 50 -24 0 -22 -3 -23 -50 -18 l-50 5 0 -48 0 -47 60 4 c57 3 60 2 60 -19 0
-22 -3 -23 -92 -23 l-93 0 2 142 c2 79 3 144 3 146 0 1 39 1 88 0 82 -3 87 -4
90 -25z m112 -93 l0 -120 60 0 c57 0 60 -1 60 -25 0 -25 -1 -25 -92 -25 l-93
0 2 142 c1 79 3 144 3 146 0 1 14 2 30 2 l30 0 0 -120z m-4200 -103 c0 -1 -31
-34 -70 -72 l-70 -69 0 72 0 72 70 0 c39 0 70 -1 70 -3z m5920 -67 c0 -38 -3
-69 -7 -69 -5 1 -37 32 -72 70 l-64 69 71 0 72 0 0 -70z m-3030 -1283 l0
-1124 -42 -30 c-170 -121 -354 -154 -526 -94 -46 16 -116 50 -154 76 l-70 47
-42 -30 c-57 -41 -150 -87 -216 -106 -65 -20 -187 -22 -256 -5 -65 16 -178 68
-231 108 l-43 31 0 1125 0 1125 790 0 790 0 0 -1123z m-1803 683 c52 -31 66
-63 71 -154 l4 -81 -141 0 -141 0 0 75 c0 54 5 85 18 109 35 66 125 90 189 51z
m2256 -142 c4 -41 17 -79 45 -130 44 -81 56 -126 72 -271 15 -142 44 -192 129
-222 56 -19 119 -19 217 1 126 26 270 0 345 -63 57 -49 88 -143 56 -175 -32
-31 -37 -60 -37 -195 0 -106 5 -155 19 -208 11 -38 18 -71 17 -72 -1 -2 -30
-6 -64 -9 -44 -5 -62 -3 -62 5 0 7 -30 11 -92 11 -70 0 -96 4 -109 16 -17 15
-20 15 -43 0 -14 -9 -34 -16 -44 -16 -33 0 -82 21 -82 36 0 20 -11 17 -50 -11
-42 -31 -53 -31 -94 0 -41 31 -47 31 -74 0 -20 -22 -29 -25 -95 -25 l-73 0
-13 107 c-7 63 -24 142 -42 192 -67 193 -87 392 -55 539 20 93 22 175 5 242
l-13 52 -63 -5 c-48 -4 -63 -1 -67 10 -13 34 -5 50 35 69 24 10 52 34 67 56
19 29 36 42 70 51 48 15 57 24 67 72 9 41 21 16 28 -57z m1485 -82 c68 -26 72
-29 72 -59 0 -34 -8 -38 -262 -133 -15 -5 -18 0 -18 28 0 31 3 35 38 44 37 9
37 9 40 65 3 51 1 56 -23 67 -14 7 -32 12 -40 12 -10 0 -15 10 -15 29 l0 30
68 -28 c37 -15 100 -40 140 -55z m-3668 -69 c0 -31 -4 -35 -40 -46 l-40 -12 0
-55 c0 -53 1 -56 32 -69 18 -7 36 -11 40 -9 5 3 8 -9 8 -26 0 -22 -4 -30 -12
-27 -105 43 -249 97 -258 97 -7 0 -10 14 -8 37 l3 37 135 52 c74 29 136 53
138 53 1 1 2 -14 2 -32z m3740 -187 l0 -30 -121 0 -121 0 4 -60 c3 -57 2 -60
-19 -60 -22 0 -23 3 -23 90 l0 90 140 0 140 0 0 -30z m-3813 -80 c52 -31 66
-63 71 -154 l4 -81 -142 0 -142 0 4 87 c3 76 6 90 28 113 50 55 122 69 177 35z
m3813 -155 c0 -108 -1 -115 -20 -115 -17 0 -20 7 -20 46 l0 45 -120 -3 -120
-3 0 33 0 32 120 0 120 0 0 40 c0 33 3 40 20 40 19 0 20 -7 20 -115z m-3740
-167 l0 -33 -140 0 -140 0 0 33 0 32 140 0 140 0 0 -32z m3740 -13 l0 -35
-140 0 -140 0 0 35 0 35 140 0 140 0 0 -35z m-3773 -80 c32 -23 44 -77 31
-136 -11 -47 -13 -49 -45 -49 l-34 0 21 28 c30 40 25 106 -8 110 -19 3 -26 -5
-46 -51 -14 -30 -32 -61 -41 -70 -17 -17 -60 -22 -90 -11 -21 8 -45 56 -45 89
0 42 27 95 48 95 27 0 34 -11 18 -29 -26 -28 -29 -65 -8 -91 24 -30 37 -21 68
48 13 30 29 61 35 69 15 18 70 17 96 -2z m3773 -93 c0 -75 -2 -85 -25 -107
-58 -59 -145 -10 -145 81 l0 44 -55 0 -55 0 0 33 0 32 140 0 140 0 0 -83z
m-3740 -157 c0 -33 -4 -37 -55 -62 -43 -21 -55 -32 -55 -50 0 -21 4 -23 55
-23 l55 0 0 -32 0 -33 -140 0 -140 0 0 88 c0 80 2 90 25 112 33 34 70 32 104
-4 l28 -29 59 33 c32 19 60 35 62 35 1 0 2 -16 2 -35z m3740 -52 l0 -33 -121
0 -121 0 4 -60 c3 -48 1 -60 -11 -62 -9 -2 44 -26 117 -53 l133 -50 -3 -34
c-3 -33 -3 -34 -140 -86 l-138 -53 0 32 c0 29 4 34 40 46 l40 13 0 57 0 57
-40 12 -40 12 0 117 0 117 140 0 140 0 0 -32z m-3980 -253 l0 -60 35 0 35 0 0
50 c0 47 2 50 25 50 23 0 25 -3 25 -50 l0 -50 41 0 41 0 -4 60 c-3 57 -2 60
20 60 21 0 22 -3 22 -92 l0 -93 -140 0 -140 0 0 93 c0 85 1 92 20 92 18 0 20
-7 20 -60z m240 -275 c0 -30 -2 -31 -126 -73 -69 -24 -132 -46 -140 -49 -10
-4 -14 4 -14 29 l0 35 88 27 c48 15 93 30 99 34 8 5 -27 21 -87 41 -88 28
-100 35 -100 55 0 23 1 23 140 -22 139 -46 140 -46 140 -77z m3740 32 c0 -30
-8 -39 -91 -97 l-90 -65 90 -3 c86 -3 91 -4 91 -25 0 -22 -1 -22 -140 -19
l-140 3 0 24 c0 19 21 39 102 97 102 72 102 73 69 76 -19 2 -65 2 -103 0 -67
-3 -68 -3 -68 22 l0 25 140 -3 140 -3 0 -32z m-3740 -219 l0 -33 -140 0 -140
0 0 33 0 32 140 0 140 0 0 -32z m3681 -61 c94 -63 88 -199 -12 -249 -129 -66
-262 71 -195 200 37 71 139 95 207 49z m-3681 -54 c-1 -24 -16 -39 -102 -100
l-101 -73 101 0 102 0 0 -25 0 -25 -141 0 -140 0 3 37 c3 35 10 42 90 98 48
33 87 64 87 68 1 5 -40 7 -89 5 -88 -3 -90 -2 -90 20 0 22 1 22 140 22 l140 0
0 -27z m-33 -301 c31 -17 47 -81 33 -132 -17 -61 -37 -70 -167 -70 l-113 0 0
30 0 30 101 0 c119 0 139 8 139 55 0 55 -28 67 -144 63 l-96 -3 0 25 0 25 112
-5 c64 -3 123 -11 135 -18z m1744 -46 l-22 -35 48 -6 c158 -20 303 -56 303
-75 0 -13 -34 -30 -59 -30 -17 0 -19 -4 -10 -32 11 -39 4 -46 -41 -49 -51 -3
-160 12 -160 21 0 5 -13 2 -28 -5 -60 -30 -343 -45 -402 -21 -12 5 -14 20 -12
66 2 36 0 60 -6 60 -15 0 -19 -40 -9 -73 6 -17 6 -32 1 -37 -10 -10 -125 49
-132 68 -4 13 57 54 73 49 5 -2 16 2 23 10 17 16 32 17 32 1 0 -6 6 -4 13 6 9
12 42 22 115 33 98 15 102 15 119 -3 10 -11 15 -15 11 -10 -16 21 -7 36 34 57
43 22 120 48 127 43 2 -2 -6 -19 -18 -38z m637 -81 c4 -71 -3 -101 -23 -109
-13 -5 -186 51 -216 70 -13 7 200 105 221 101 11 -2 16 -18 18 -62z m-78 -620
c66 -34 97 -129 63 -195 -56 -109 -214 -107 -263 3 -11 23 -20 52 -20 65 0 37
38 101 73 122 38 24 106 26 147 5z m-876 -87 c22 -31 20 -70 -4 -101 -28 -35
-61 -40 -118 -19 l-50 19 -16 -34 c-9 -18 -16 -40 -16 -48 0 -19 -4 -19 -39 0
l-29 14 38 79 c21 44 48 102 60 130 l22 51 68 -34 c38 -19 76 -45 84 -57z
m638 -132 c27 -59 47 -114 44 -122 -10 -25 -47 -15 -148 42 -55 31 -101 54
-103 52 -1 -1 16 -43 40 -91 40 -84 41 -88 23 -98 -11 -6 -21 -9 -22 -7 -1 2
-24 50 -50 108 -27 58 -54 114 -61 126 -12 19 -11 22 18 36 32 15 34 15 126
-39 52 -29 96 -52 98 -49 2 2 -12 39 -31 82 -20 42 -35 78 -34 79 2 1 12 7 23
13 16 9 21 8 24 -6 2 -9 26 -66 53 -126z m-503 78 c-1 -5 -20 -46 -41 -92 -21
-45 -38 -93 -38 -107 0 -27 25 -45 64 -45 31 0 51 29 93 132 28 68 36 75 61
59 11 -6 4 -29 -31 -103 -44 -95 -82 -138 -120 -138 -40 0 -109 42 -122 74
-14 33 -13 38 51 187 l28 66 29 -12 c16 -6 27 -16 26 -21z"/>
<path d="M476 4655 c-62 -57 -4 -162 79 -141 65 16 85 93 39 140 -35 34 -82
35 -118 1z"/>
<path d="M650 3766 l0 -134 61 -4 c33 -1 63 -1 65 1 2 2 4 64 4 138 l0 133
-65 0 -65 0 0 -134z"/>
<path d="M650 2380 l0 -140 65 0 65 0 0 140 0 140 -65 0 -65 0 0 -140z m100 0
l0 -110 -35 0 -35 0 0 110 0 110 35 0 35 0 0 -110z"/>
<path d="M650 1730 l0 -140 65 0 65 0 0 140 0 140 -65 0 -65 0 0 -140z"/>
<path d="M650 1020 l0 -140 65 0 65 0 0 140 0 140 -65 0 -65 0 0 -140z m100 5
l0 -105 -35 0 -35 0 0 105 0 105 35 0 35 0 0 -105z"/>
<path d="M670 542 c0 -36 80 -92 131 -92 16 0 19 7 19 55 l0 55 -75 0 c-66 0
-75 -2 -75 -18z"/>
<path d="M1221 430 c-13 -11 -41 -23 -62 -26 l-39 -7 0 -69 0 -69 48 40 c26
22 56 55 66 73 14 22 1 12 -42 -32 l-61 -65 -1 58 c0 51 2 57 20 57 12 0 40
10 63 22 23 12 45 21 50 20 4 -1 7 3 7 8 0 16 -23 11 -49 -10z"/>
<path d="M5812 4660 c-41 -38 -40 -92 1 -130 49 -47 137 -4 137 67 0 69 -88
109 -138 63z"/>
<path d="M5620 3766 l0 -133 31 -7 c17 -3 47 -6 65 -6 l34 0 0 140 0 140 -65
0 -65 0 0 -134z"/>
<path d="M5620 2380 l0 -140 65 0 65 0 0 140 0 140 -65 0 -65 0 0 -140z m100
0 l0 -110 -35 0 -35 0 0 110 0 110 35 0 35 0 0 -110z"/>
<path d="M5620 1730 l0 -140 65 0 65 0 0 140 0 140 -65 0 -65 0 0 -140z"/>
<path d="M5620 1020 l0 -140 65 0 65 0 0 140 0 140 -65 0 -65 0 0 -140z m100
5 l0 -105 -35 0 -35 0 0 105 0 105 35 0 35 0 0 -105z"/>
<path d="M5580 504 l0 -57 36 6 c60 10 139 78 117 101 -4 3 -39 6 -80 6 l-73
0 0 -56z"/>
<path d="M5130 440 c0 -5 3 -9 8 -8 4 1 26 -8 49 -20 23 -12 51 -22 63 -22 18
0 20 -6 20 -57 l-1 -58 -59 63 c-33 34 -60 60 -60 57 0 -10 112 -125 122 -125
5 0 8 28 6 62 -3 61 -4 62 -35 69 -17 3 -48 16 -68 28 -41 24 -45 25 -45 11z"/>
<path d="M192 4708 c-25 -25 -7 -68 29 -68 29 0 44 27 31 55 -12 27 -40 33
-60 13z"/>
<path d="M6150 4700 c-8 -14 -8 -26 0 -40 18 -33 70 -23 70 14 0 45 -50 63
-70 26z"/>
<path d="M2121 4669 c-17 -50 -14 -59 19 -59 19 0 30 5 30 14 0 22 -21 76 -30
76 -4 0 -13 -14 -19 -31z"/>
<path d="M2749 4711 c-24 -24 -29 -38 -29 -76 0 -79 71 -129 127 -90 55 39 51
150 -7 180 -41 21 -58 19 -91 -14z"/>
<path d="M3375 4667 c-10 -26 -16 -49 -14 -50 2 -2 18 0 35 3 l32 5 -18 44
-17 45 -18 -47z"/>
<path d="M3980 4635 l0 -95 36 0 c26 0 43 8 65 29 62 62 15 161 -76 161 l-25
0 0 -95z"/>
<path d="M2402 3860 c-19 -30 -14 -38 7 -11 l19 25 21 -35 c11 -19 21 -30 21
-26 0 16 -34 67 -45 67 -5 0 -16 -9 -23 -20z"/>
<path d="M2376 3805 c-9 -26 -7 -32 5 -12 6 10 9 21 6 23 -2 3 -7 -2 -11 -11z"/>
<path d="M2471 3784 c0 -11 3 -14 6 -6 3 7 2 16 -1 19 -3 4 -6 -2 -5 -13z"/>
<path d="M2482 3735 c0 -16 2 -22 5 -12 2 9 2 23 0 30 -3 6 -5 -1 -5 -18z"/>
<path d="M2351 3714 c0 -11 3 -14 6 -6 3 7 2 16 -1 19 -3 4 -6 -2 -5 -13z"/>
<path d="M2310 3671 c0 -12 4 -20 10 -16 5 3 16 -8 25 -25 8 -16 18 -30 21
-30 2 0 0 9 -6 19 -5 11 -10 32 -11 48 0 15 -3 22 -6 15 -4 -10 -8 -10 -19 -1
-11 9 -14 7 -14 -10z"/>
<path d="M2491 3634 c0 -11 3 -14 6 -6 3 7 2 16 -1 19 -3 4 -6 -2 -5 -13z"/>
<path d="M2292 3593 c-7 -25 -11 -47 -9 -50 2 -2 10 17 17 42 7 25 11 48 8 50
-2 2 -10 -16 -16 -42z"/>
<path d="M2371 3590 c0 -3 8 -30 19 -60 11 -30 19 -46 19 -35 0 17 -37 109
-38 95z"/>
<path d="M2471 3561 c-7 -13 -9 -21 -3 -18 5 4 17 -21 27 -53 10 -33 20 -58
23 -56 2 3 -3 26 -11 53 -9 26 -17 59 -19 73 l-3 25 -14 -24z"/>
<path d="M2446 3515 c-9 -26 -7 -32 5 -12 6 10 9 21 6 23 -2 3 -7 -2 -11 -11z"/>
<path d="M2410 3448 c0 -15 -2 -35 -5 -45 -3 -10 2 -3 10 16 12 24 13 37 6 44
-8 8 -11 3 -11 -15z"/>
<path d="M2522 3405 c0 -11 4 -31 8 -45 6 -20 8 -21 8 -5 0 11 -4 31 -8 45 -6
20 -8 21 -8 5z"/>
<path d="M2253 3355 c0 -22 2 -30 4 -17 2 12 2 30 0 40 -3 9 -5 -1 -4 -23z"/>
<path d="M2542 3305 c0 -16 2 -22 5 -12 2 9 2 23 0 30 -3 6 -5 -1 -5 -18z"/>
<path d="M2371 3296 c-1 -15 -3 -16 -16 -6 -13 11 -18 11 -28 0 -9 -10 -9 -11
2 -5 16 9 30 -10 32 -45 1 -18 3 -15 10 14 5 22 7 44 5 50 -2 6 -5 3 -5 -8z"/>
<path d="M2261 3274 c0 -11 3 -14 6 -6 3 7 2 16 -1 19 -3 4 -6 -2 -5 -13z"/>
<path d="M2305 3259 c-4 -6 -5 -12 -2 -15 2 -3 7 2 10 11 7 17 1 20 -8 4z"/>
<path d="M2553 3215 c0 -33 2 -45 4 -27 2 18 2 45 0 60 -2 15 -4 0 -4 -33z"/>
<path d="M2276 3225 c2 -11 4 -27 5 -35 0 -10 3 -8 9 5 12 27 12 37 1 30 -5
-3 -11 0 -14 7 -2 7 -3 4 -1 -7z"/>
<path d="M2271 3154 c0 -11 3 -14 6 -6 3 7 2 16 -1 19 -3 4 -6 -2 -5 -13z"/>
<path d="M2372 3150 c0 -14 2 -19 5 -12 2 6 2 18 0 25 -3 6 -5 1 -5 -13z"/>
<path d="M2541 3134 c0 -11 3 -14 6 -6 3 7 2 16 -1 19 -3 4 -6 -2 -5 -13z"/>
<path d="M2261 3114 c0 -11 3 -14 6 -6 3 7 2 16 -1 19 -3 4 -6 -2 -5 -13z"/>
<path d="M2381 3094 c0 -11 3 -14 6 -6 3 7 2 16 -1 19 -3 4 -6 -2 -5 -13z"/>
<path d="M2253 3020 c0 -36 2 -50 4 -32 2 17 2 47 0 65 -2 17 -4 3 -4 -33z"/>
<path d="M2404 3027 c3 -10 6 -31 7 -45 0 -24 1 -25 9 -7 7 19 9 18 19 -8 16
-41 14 -72 -8 -98 -18 -22 -21 -23 -36 -8 -16 15 -16 19 0 49 9 17 14 34 12
36 -2 3 -10 -8 -16 -24 -7 -16 -23 -35 -37 -42 -21 -12 -27 -11 -52 11 l-27
24 28 -31 c15 -17 24 -33 21 -37 -4 -3 12 -29 34 -57 38 -48 46 -69 65 -175 2
-11 4 16 5 60 l1 80 42 37 c23 20 48 34 56 31 7 -3 25 -25 39 -48 18 -31 34
-46 54 -50 32 -7 77 -53 85 -88 5 -20 11 -22 76 -19 68 4 70 3 101 -30 l31
-33 -6 30 c-4 17 -12 66 -17 110 -14 103 -23 124 -68 167 -47 45 -67 49 -145
33 -125 -26 -149 -36 -197 -81 -32 -30 -50 -41 -53 -32 -3 7 -6 1 -6 -14 -1
-16 -4 -28 -8 -28 -16 1 -75 100 -69 116 10 25 40 12 58 -26 10 -19 18 -27 18
-18 0 9 9 33 21 52 13 22 19 48 18 70 -3 24 3 42 17 58 12 13 24 30 28 38 4 8
-2 3 -14 -12 -12 -16 -30 -28 -41 -28 -10 0 -26 12 -34 28 -9 15 -14 19 -11 9z"/>
<path d="M2260 2941 c0 -6 4 -13 10 -16 6 -3 7 1 4 9 -7 18 -14 21 -14 7z"/>
<path d="M2090 2670 c0 -7 -16 -32 -35 -55 -34 -42 -34 -43 -32 -133 l2 -91
30 30 c17 16 36 29 41 29 6 0 21 11 34 25 13 14 32 25 41 25 10 0 23 9 29 19
18 35 41 51 70 51 24 0 40 -13 90 -72 33 -39 60 -75 60 -80 0 -4 5 -8 10 -8 6
0 9 36 8 93 l-2 92 -5 -84 -6 -83 -32 43 c-17 24 -46 61 -65 81 -18 20 -43 50
-56 67 -17 23 -35 32 -80 41 -31 6 -67 14 -79 17 -15 3 -23 1 -23 -7z"/>
<path d="M1281 3836 c-30 -16 -50 -52 -51 -88 l0 -28 101 0 101 0 -7 33 c-17
81 -81 118 -144 83z"/>
<path d="M3584 3650 c0 -13 4 -16 10 -10 7 7 7 13 0 20 -6 6 -10 3 -10 -10z"/>
<path d="M3500 3645 c-10 -12 -9 -16 3 -21 9 -3 26 -4 39 -1 17 3 14 5 -11 6
-29 1 -32 3 -21 16 7 8 10 15 7 15 -2 0 -10 -7 -17 -15z"/>
<path d="M5050 3615 c0 -40 7 -42 65 -16 l40 18 -50 16 c-26 9 -50 17 -52 17
-2 0 -3 -16 -3 -35z"/>
<path d="M1295 3501 l-50 -18 39 -17 c57 -24 66 -21 66 19 0 19 -1 35 -2 34
-2 0 -25 -9 -53 -18z"/>
<path d="M1281 3276 c-30 -16 -50 -52 -51 -88 l0 -28 100 0 c55 0 100 3 100 8
0 4 -5 24 -10 44 -19 66 -82 96 -139 64z"/>
<path d="M5080 2807 c0 -38 15 -57 45 -57 30 0 45 19 45 57 0 32 -1 33 -45 33
-44 0 -45 -1 -45 -33z"/>
<path d="M1242 2618 c-7 -7 -12 -29 -12 -50 0 -38 0 -38 40 -38 40 0 40 0 40
38 0 40 -14 62 -40 62 -9 0 -21 -5 -28 -12z"/>
<path d="M5050 2330 c0 -33 9 -36 59 -19 40 14 39 22 -2 37 -49 18 -57 15 -57
-18z"/>
<path d="M5001 1774 c-81 -67 17 -176 120 -134 62 26 70 107 15 141 -45 27
-98 25 -135 -7z"/>
<path d="M2733 1306 c1 -11 9 -21 17 -23 10 -3 11 -2 4 4 -6 4 -14 15 -17 23
-5 11 -6 9 -4 -4z"/>
<path d="M3388 1293 c6 -2 18 -2 25 0 6 3 1 5 -13 5 -14 0 -19 -2 -12 -5z"/>
<path d="M3634 700 c-49 -19 -67 -77 -40 -128 36 -69 101 -87 143 -38 27 32
29 65 7 111 -12 27 -67 68 -86 64 -1 0 -13 -4 -24 -9z"/>
<path d="M2730 630 c-20 -39 -20 -39 -1 -50 11 -5 33 -10 50 -10 25 0 32 5 37
27 6 21 2 31 -20 50 -15 13 -31 23 -36 23 -5 0 -19 -18 -30 -40z"/>
<path d="M3090 6895 c13 -14 29 -25 35 -25 6 0 22 11 35 25 l23 25 -58 0 -58
0 23 -25z"/>
<path d="M3250 6895 c13 -14 29 -25 35 -25 6 0 22 11 35 25 l23 25 -58 0 -58
0 23 -25z"/>
<path d="M3112 5770 c0 -14 2 -19 5 -12 2 6 2 18 0 25 -3 6 -5 1 -5 -13z"/>
<path d="M3100 5726 c0 -24 -40 -66 -73 -75 -27 -8 -28 -9 -8 -10 26 -1 91 58
91 83 0 9 -2 16 -5 16 -3 0 -5 -6 -5 -14z"/>
<path d="M2858 5713 c17 -2 47 -2 65 0 17 2 3 4 -33 4 -36 0 -50 -2 -32 -4z"/>
<path d="M2758 5703 c12 -2 32 -2 45 0 12 2 2 4 -23 4 -25 0 -35 -2 -22 -4z"/>
<path d="M2708 5693 c7 -3 16 -2 19 1 4 3 -2 6 -13 5 -11 0 -14 -3 -6 -6z"/>
<path d="M3525 5690 c77 -4 149 -11 160 -15 16 -7 18 -6 8 5 -9 10 -52 14
-160 16 l-148 2 140 -8z"/>
<path d="M2639 5663 l-24 -28 30 25 c17 14 32 26 34 28 2 1 0 2 -6 2 -5 0 -20
-12 -34 -27z"/>
<path d="M3332 5670 c-12 -12 -22 -24 -22 -27 0 -4 10 3 23 14 12 11 29 23 37
26 13 5 13 6 -1 6 -8 1 -25 -8 -37 -19z"/>
<path d="M2898 5633 c12 -2 32 -2 45 0 12 2 2 4 -23 4 -25 0 -35 -2 -22 -4z"/>
<path d="M3490 5629 c0 -5 11 -9 25 -9 14 0 25 2 25 4 0 2 -11 6 -25 8 -14 3
-25 1 -25 -3z"/>
<path d="M2611 5614 c0 -11 3 -14 6 -6 3 7 2 16 -1 19 -3 4 -6 -2 -5 -13z"/>
<path d="M2798 5623 c12 -2 30 -2 40 0 9 3 -1 5 -23 4 -22 0 -30 -2 -17 -4z"/>
<path d="M3302 5605 c0 -16 2 -22 5 -12 2 9 2 23 0 30 -3 6 -5 -1 -5 -18z"/>
<path d="M2252 5462 c-40 -56 -62 -115 -61 -167 l1 -50 8 53 c5 32 22 76 44
114 39 65 45 102 8 50z"/>
<path d="M4123 5460 c-18 -11 -33 -22 -33 -25 0 -2 15 4 33 15 37 23 74 25
100 6 22 -17 50 -89 67 -171 7 -33 15 -54 17 -47 3 7 -7 54 -21 105 -38 132
-84 165 -163 117z"/>
<path d="M2558 5452 c-16 -2 -28 -6 -28 -10 0 -3 19 -68 42 -144 40 -131 44
-138 68 -138 17 0 39 13 60 35 27 28 34 44 38 88 9 108 -70 182 -180 169z"/>
<path d="M3775 5451 c-69 -17 -125 -84 -125 -148 1 -67 57 -143 107 -143 20 0
27 14 63 129 44 140 47 161 26 161 -8 0 -20 2 -28 4 -7 2 -27 1 -43 -3z"/>
<path d="M2182 5220 c0 -14 2 -19 5 -12 2 6 2 18 0 25 -3 6 -5 1 -5 -13z"/>
<path d="M2157 5157 l-17 -32 20 24 c17 20 26 41 18 41 -2 0 -11 -15 -21 -33z"/>
<path d="M2088 5113 c7 -3 16 -2 19 1 4 3 -2 6 -13 5 -11 0 -14 -3 -6 -6z"/>
</g>
</svg>
